<svg xmlns="http://www.w3.org/2000/svg" xmlns:xlink="http://www.w3.org/1999/xlink" width="500" zoomAndPan="magnify" viewBox="0 0 375 374.999991" height="500" preserveAspectRatio="xMidYMid meet" version="1.0"><defs><g/><clipPath id="21604b1d42"><path d="M 239 195 L 291.902344 195 L 291.902344 247.347656 L 239 247.347656 Z M 239 195 " clip-rule="nonzero"/></clipPath><clipPath id="4d46e9e488"><path d="M 120 191 L 176 191 L 176 247.347656 L 120 247.347656 Z M 120 191 " clip-rule="nonzero"/></clipPath><clipPath id="0563eee179"><path d="M 99.902344 111 L 159 111 L 159 154 L 99.902344 154 Z M 99.902344 111 " clip-rule="nonzero"/></clipPath></defs><path fill="#f19763" d="M 228.289062 137.339844 C 227.128906 139.253906 225.421875 140.183594 223.511719 139.027344 L 177.269531 119.683594 C 175.355469 118.523438 173.96875 116.941406 175.46875 113.484375 L 175.695312 112.980469 C 177.527344 109.777344 180.746094 109.71875 182.660156 110.878906 L 228.054688 133.820312 C 229.96875 134.980469 229.453125 135.429688 228.289062 137.339844 " fill-opacity="1" fill-rule="nonzero"/><path fill="#f19763" d="M 228.054688 133.820312 C 228.054688 133.820312 236.960938 135.976562 237.152344 140.882812 C 237.179688 141.640625 237.25 143.671875 235.941406 143.671875 C 235.941406 143.671875 234.453125 143.734375 234.203125 141.371094 C 233.945312 139.007812 231.324219 138.597656 229.582031 138.59375 C 227.832031 138.59375 226.394531 140.832031 223.511719 139.027344 L 228.054688 133.820312 " fill-opacity="1" fill-rule="nonzero"/><path fill="#7b7979" d="M 126.433594 181.417969 L 130.285156 180.90625 L 121.726562 154.746094 C 121.398438 153.746094 120.316406 153.195312 119.320312 153.523438 C 118.3125 153.851562 117.761719 154.929688 118.09375 155.933594 L 126.433594 181.417969 " fill-opacity="1" fill-rule="nonzero"/><path fill="#7b7979" d="M 147.566406 181.417969 L 151.421875 180.90625 L 142.863281 154.746094 C 142.539062 153.746094 141.460938 153.195312 140.457031 153.523438 C 139.449219 153.851562 138.90625 154.929688 139.234375 155.933594 L 147.566406 181.417969 " fill-opacity="1" fill-rule="nonzero"/><path fill="#a7a5a6" d="M 153.648438 154.988281 C 153.648438 156.046875 152.789062 156.898438 151.734375 156.898438 L 107.972656 156.898438 C 106.917969 156.898438 106.0625 156.046875 106.0625 154.988281 C 106.0625 153.933594 106.917969 153.078125 107.972656 153.078125 L 151.734375 153.078125 C 152.789062 153.078125 153.648438 153.933594 153.648438 154.988281 " fill-opacity="1" fill-rule="nonzero"/><g clip-path="url(#21604b1d42)"><path fill="#5b1f15" d="M 291.90625 221.292969 C 291.90625 235.648438 280.253906 247.285156 265.882812 247.285156 C 251.507812 247.285156 239.859375 235.648438 239.859375 221.292969 C 239.859375 206.941406 251.507812 195.300781 265.882812 195.300781 C 280.253906 195.300781 291.90625 206.941406 291.90625 221.292969 " fill-opacity="1" fill-rule="nonzero"/></g><path fill="#d5d1b0" d="M 278.082031 221.292969 C 278.082031 228.023438 272.617188 233.480469 265.882812 233.480469 C 259.136719 233.480469 253.679688 228.023438 253.679688 221.292969 C 253.679688 214.558594 259.136719 209.105469 265.882812 209.105469 C 272.617188 209.105469 278.082031 214.558594 278.082031 221.292969 " fill-opacity="1" fill-rule="nonzero"/><path fill="#5b1f15" d="M 272.640625 221.292969 C 272.640625 225.019531 269.613281 228.042969 265.882812 228.042969 C 262.148438 228.042969 259.125 225.019531 259.125 221.292969 C 259.125 217.566406 262.148438 214.542969 265.882812 214.542969 C 269.613281 214.542969 272.640625 217.566406 272.640625 221.292969 " fill-opacity="1" fill-rule="nonzero"/><path fill="#f68712" d="M 146.167969 182.609375 C 146.167969 183.527344 145.417969 184.277344 144.496094 184.277344 L 119.347656 184.277344 C 118.421875 184.277344 117.679688 183.527344 117.679688 182.609375 L 117.679688 175.933594 C 117.679688 175.015625 118.421875 174.265625 119.347656 174.265625 L 144.496094 174.265625 C 145.417969 174.265625 146.167969 175.015625 146.167969 175.933594 L 146.167969 182.609375 " fill-opacity="1" fill-rule="nonzero"/><path fill="#af211f" d="M 222.363281 225.152344 C 222.363281 227.167969 220.734375 228.796875 218.722656 228.796875 C 216.707031 228.796875 215.074219 227.167969 215.074219 225.152344 L 215.074219 218.335938 C 215.074219 216.328125 216.707031 214.695312 218.722656 214.695312 C 220.734375 214.695312 222.363281 216.328125 222.363281 218.335938 L 222.363281 225.152344 " fill-opacity="1" fill-rule="nonzero"/><path fill="#5b1f15" d="M 195.488281 226.476562 C 194.273438 226.476562 193.28125 225.492188 193.28125 224.277344 C 193.28125 223.058594 194.273438 222.074219 195.488281 222.074219 L 218.972656 222.074219 C 220.191406 222.074219 221.171875 223.058594 221.171875 224.277344 C 221.171875 225.492188 220.191406 226.476562 218.972656 226.476562 L 195.488281 226.476562 " fill-opacity="1" fill-rule="nonzero"/><path fill="#f8a10e" d="M 253.976562 143.183594 C 253.976562 149.832031 248.578125 155.222656 241.917969 155.222656 C 235.261719 155.222656 229.859375 149.832031 229.859375 143.183594 C 229.859375 136.53125 235.261719 131.140625 241.917969 131.140625 C 248.578125 131.140625 253.976562 136.53125 253.976562 143.183594 " fill-opacity="1" fill-rule="nonzero"/><path fill="#5b1f15" d="M 154.097656 183.171875 C 154.097656 184.316406 153.066406 185.242188 151.789062 185.242188 L 125.429688 185.242188 C 124.148438 185.242188 123.117188 184.316406 123.117188 183.171875 L 123.117188 174.902344 C 123.117188 173.757812 124.148438 172.832031 125.429688 172.832031 L 151.789062 172.832031 C 153.066406 172.832031 154.097656 173.757812 154.097656 174.902344 L 154.097656 183.171875 " fill-opacity="1" fill-rule="nonzero"/><path fill="#dc2b28" d="M 160.164062 184.785156 C 160.164062 186.261719 159.09375 187.464844 157.78125 187.464844 L 130.332031 187.464844 C 129.007812 187.464844 127.945312 186.261719 127.945312 184.785156 L 127.945312 174.070312 C 127.945312 172.589844 129.007812 171.390625 130.332031 171.390625 L 157.78125 171.390625 C 159.09375 171.390625 160.164062 172.589844 160.164062 174.070312 L 160.164062 184.785156 " fill-opacity="1" fill-rule="nonzero"/><g clip-path="url(#4d46e9e488)"><path fill="#5b1f15" d="M 175.800781 219.453125 C 175.800781 234.824219 163.328125 247.285156 147.941406 247.285156 C 132.550781 247.285156 120.078125 234.824219 120.078125 219.453125 C 120.078125 204.085938 132.550781 191.628906 147.941406 191.628906 C 163.328125 191.628906 175.800781 204.085938 175.800781 219.453125 " fill-opacity="1" fill-rule="nonzero"/></g><path fill="#d5d1b0" d="M 161.007812 219.453125 C 161.007812 226.664062 155.15625 232.507812 147.941406 232.507812 C 140.722656 232.507812 134.875 226.664062 134.875 219.453125 C 134.875 212.246094 140.722656 206.40625 147.941406 206.40625 C 155.15625 206.40625 161.007812 212.246094 161.007812 219.453125 " fill-opacity="1" fill-rule="nonzero"/><path fill="#5b1f15" d="M 155.175781 219.453125 C 155.175781 223.449219 151.9375 226.683594 147.941406 226.683594 C 143.941406 226.683594 140.707031 223.449219 140.707031 219.453125 C 140.707031 215.464844 143.941406 212.230469 147.941406 212.230469 C 151.9375 212.230469 155.175781 215.464844 155.175781 219.453125 " fill-opacity="1" fill-rule="nonzero"/><path fill="#ef2f2c" d="M 290.066406 209.808594 C 290.070312 209.691406 290.078125 209.570312 290.078125 209.449219 C 290.078125 201.023438 279.578125 194.191406 266.632812 194.191406 C 253.679688 194.191406 243.183594 201.023438 243.183594 209.449219 C 243.183594 209.570312 243.191406 209.691406 243.195312 209.808594 L 290.066406 209.808594 " fill-opacity="1" fill-rule="nonzero"/><path fill="#ef2f2c" d="M 252.246094 185.800781 C 248.460938 174.207031 238.90625 138.386719 238.90625 138.386719 L 230.617188 141.265625 C 234.9375 159.992188 236.742188 167.195312 240.347656 191.203125 C 243.167969 209.960938 231.878906 211.847656 221.601562 211.847656 C 213.488281 211.847656 203.574219 211.847656 203.574219 211.847656 C 174.445312 211.847656 186.363281 167.980469 187.914062 162.664062 L 155.941406 162.664062 L 167.523438 195.640625 C 164.640625 221.96875 193.480469 220.128906 193.480469 220.128906 L 235.480469 220.128906 C 259.632812 220.128906 255.332031 195.265625 252.246094 185.800781 " fill-opacity="1" fill-rule="nonzero"/><path fill="#ef2f2c" d="M 246.402344 129.625 C 235.527344 129.683594 226.730469 135.730469 226.730469 143.183594 C 226.730469 150.636719 235.527344 156.6875 246.402344 156.746094 L 246.402344 129.625 " fill-opacity="1" fill-rule="nonzero"/><path fill="#ef2f2c" d="M 267.882812 196.480469 C 266.507812 192.835938 255.101562 163.53125 252.933594 158.585938 C 251.953125 156.351562 248.894531 156.386719 248.894531 156.386719 L 239.433594 156.386719 L 249.515625 196.480469 L 267.882812 196.480469 " fill-opacity="1" fill-rule="nonzero"/><path fill="#ef2f2c" d="M 179.171875 200.714844 C 179.171875 200.523438 179.183594 200.335938 179.183594 200.144531 C 179.183594 186.671875 172.476562 170.449219 152.960938 170.449219 C 130.125 170.449219 122.289062 186.671875 122.289062 200.144531 C 122.289062 200.335938 122.296875 200.523438 122.304688 200.714844 L 179.171875 200.714844 " fill-opacity="1" fill-rule="nonzero"/><path fill="#c82724" d="M 155.992188 170.449219 C 155.140625 170.449219 154.308594 170.476562 153.492188 170.523438 C 171.503906 171.679688 177.804688 187.46875 177.839844 200.714844 L 182.199219 200.714844 C 182.203125 200.523438 182.214844 200.335938 182.214844 200.144531 C 182.214844 186.671875 175.507812 170.449219 155.992188 170.449219 " fill-opacity="1" fill-rule="nonzero"/><path fill="#921b18" d="M 164.027344 196.300781 C 164.027344 196.851562 163.574219 197.300781 163.023438 197.300781 L 135.257812 197.300781 C 134.707031 197.300781 134.257812 196.851562 134.257812 196.300781 C 134.257812 195.746094 134.707031 195.300781 135.257812 195.300781 L 163.023438 195.300781 C 163.574219 195.300781 164.027344 195.746094 164.027344 196.300781 " fill-opacity="1" fill-rule="nonzero"/><path fill="#921b18" d="M 164.027344 192.625 C 164.027344 193.175781 163.574219 193.625 163.023438 193.625 L 135.257812 193.625 C 134.707031 193.625 134.257812 193.175781 134.257812 192.625 C 134.257812 192.074219 134.707031 191.628906 135.257812 191.628906 L 163.023438 191.628906 C 163.574219 191.628906 164.027344 192.074219 164.027344 192.625 " fill-opacity="1" fill-rule="nonzero"/><path fill="#921b18" d="M 164.027344 188.949219 C 164.027344 189.503906 163.574219 189.949219 163.023438 189.949219 L 135.257812 189.949219 C 134.707031 189.949219 134.257812 189.503906 134.257812 188.949219 C 134.257812 188.398438 134.707031 187.949219 135.257812 187.949219 L 163.023438 187.949219 C 163.574219 187.949219 164.027344 188.398438 164.027344 188.949219 " fill-opacity="1" fill-rule="nonzero"/><path fill="#921b18" d="M 164.027344 185.273438 C 164.027344 185.828125 163.574219 186.273438 163.023438 186.273438 L 135.257812 186.273438 C 134.707031 186.273438 134.257812 185.828125 134.257812 185.273438 C 134.257812 184.722656 134.707031 184.277344 135.257812 184.277344 L 163.023438 184.277344 C 163.574219 184.277344 164.027344 184.722656 164.027344 185.273438 " fill-opacity="1" fill-rule="nonzero"/><path fill="#5b1f15" d="M 191.128906 166.488281 C 191.128906 169.195312 188.933594 171.390625 186.222656 171.390625 L 145.273438 171.390625 C 142.558594 171.390625 140.363281 169.195312 140.363281 166.488281 C 140.363281 163.78125 142.558594 161.585938 145.273438 161.585938 L 186.222656 161.585938 C 188.933594 161.585938 191.128906 163.78125 191.128906 166.488281 " fill-opacity="1" fill-rule="nonzero"/><path fill="#f8a10e" d="M 261.980469 181.273438 L 259.589844 181.273438 C 258.667969 181.273438 257.921875 182.019531 257.921875 182.9375 L 257.921875 189.613281 C 257.921875 190.53125 258.667969 191.28125 259.589844 191.28125 L 265.882812 191.28125 C 264.816406 188.527344 263.4375 185.003906 261.980469 181.273438 " fill-opacity="1" fill-rule="nonzero"/><path fill="#47170f" d="M 236.960938 145.222656 C 236.507812 145.222656 236.085938 144.933594 235.941406 144.480469 C 235.886719 144.332031 230.992188 129.425781 228.109375 122.761719 C 227.105469 120.457031 224.628906 116.78125 219.253906 118.070312 C 218.675781 118.207031 218.09375 117.851562 217.953125 117.269531 C 217.808594 116.691406 218.171875 116.109375 218.75 115.96875 C 226.117188 114.203125 229.292969 120.0625 230.09375 121.902344 C 233.019531 128.660156 237.789062 143.191406 237.992188 143.808594 C 238.179688 144.375 237.867188 144.984375 237.300781 145.171875 C 237.1875 145.207031 237.078125 145.222656 236.960938 145.222656 " fill-opacity="1" fill-rule="nonzero"/><path fill="#47170f" d="M 213.039062 126.105469 C 217.699219 126.066406 221.472656 122.285156 221.472656 117.621094 C 221.472656 112.957031 217.699219 109.175781 213.039062 109.136719 L 213.039062 126.105469 " fill-opacity="1" fill-rule="nonzero"/><g clip-path="url(#0563eee179)"><path fill="#f8a10e" d="M 158.234375 149.277344 C 158.234375 151.375 156.53125 153.078125 154.425781 153.078125 L 103.707031 153.078125 C 101.601562 153.078125 99.898438 151.375 99.898438 149.277344 L 99.898438 115.046875 C 99.898438 112.941406 101.601562 111.242188 103.707031 111.242188 L 154.425781 111.242188 C 156.53125 111.242188 158.234375 112.941406 158.234375 115.046875 L 158.234375 149.277344 " fill-opacity="1" fill-rule="nonzero"/></g><path fill="#5b1f15" d="M 211.273438 154.164062 C 211.273438 158.15625 208.039062 161.394531 204.035156 161.394531 L 173.746094 161.394531 C 169.746094 161.394531 167.273438 158.15625 167.273438 154.164062 C 167.273438 150.171875 167.273438 146.933594 167.273438 146.933594 L 204.035156 146.933594 C 208.039062 146.933594 211.273438 150.171875 211.273438 154.164062 " fill-opacity="1" fill-rule="nonzero"/><path fill="#ef2f2c" d="M 188.519531 146.933594 C 188.519531 146.933594 191.628906 123.628906 192.46875 115.835938 C 192.820312 112.527344 193.375 107.839844 189.074219 107.328125 L 176.28125 106.191406 C 170.203125 105.652344 169.957031 116.785156 169.660156 120.097656 L 167.273438 146.976562 L 188.519531 146.933594 " fill-opacity="1" fill-rule="nonzero"/><path fill="#42150e" d="M 217.394531 199.304688 L 201.628906 157.597656 C 199.730469 154.082031 201.042969 149.695312 204.570312 147.800781 C 208.085938 145.90625 212.472656 147.222656 214.371094 150.734375 L 230.238281 197.816406 L 217.394531 199.304688 " fill-opacity="1" fill-rule="nonzero"/><path fill="#b08046" d="M 230.660156 196.574219 L 230.660156 202.515625 C 236.097656 202.757812 240.398438 206.019531 240.398438 210.011719 L 240.398438 210.058594 L 215.476562 210.058594 L 215.476562 196.574219 L 230.660156 196.574219 " fill-opacity="1" fill-rule="nonzero"/><path fill="#47170f" d="M 240.398438 209.691406 L 240.398438 211.636719 L 238.152344 211.636719 L 238.152344 211.09375 L 237.28125 211.09375 L 237.28125 211.636719 L 235.042969 211.636719 L 235.042969 211.09375 L 234.167969 211.09375 L 234.167969 211.636719 L 231.925781 211.636719 L 231.925781 211.09375 L 231.054688 211.09375 L 231.054688 211.636719 L 228.808594 211.636719 L 228.808594 211.09375 L 227.933594 211.09375 L 227.933594 211.636719 L 215.476562 211.636719 L 215.476562 209.691406 L 240.398438 209.691406 " fill-opacity="1" fill-rule="nonzero"/><path fill="#47170f" d="M 228.804688 198.652344 L 230.660156 198.652344 L 230.660156 199.769531 L 228.804688 199.769531 C 228.492188 199.769531 228.246094 199.519531 228.246094 199.210938 C 228.246094 198.898438 228.492188 198.652344 228.804688 198.652344 " fill-opacity="1" fill-rule="nonzero"/><path fill="#47170f" d="M 228.804688 200.546875 L 230.660156 200.546875 L 230.660156 201.667969 L 228.804688 201.667969 C 228.492188 201.667969 228.246094 201.414062 228.246094 201.105469 C 228.246094 200.796875 228.492188 200.546875 228.804688 200.546875 " fill-opacity="1" fill-rule="nonzero"/><path fill="#47170f" d="M 231.703125 205.207031 C 231.574219 205.488281 231.242188 205.617188 230.957031 205.492188 C 230.675781 205.367188 230.554688 205.039062 230.671875 204.753906 L 231.625 202.59375 C 232.019531 202.636719 232.402344 202.699219 232.773438 202.773438 L 231.703125 205.207031 " fill-opacity="1" fill-rule="nonzero"/><path fill="#47170f" d="M 229.683594 203.929688 C 229.449219 204.132812 229.09375 204.105469 228.890625 203.871094 C 228.691406 203.636719 228.71875 203.28125 228.953125 203.082031 L 229.617188 202.507812 C 229.75 202.503906 229.878906 202.5 230.019531 202.5 C 230.445312 202.5 230.863281 202.523438 231.277344 202.558594 L 229.683594 203.929688 " fill-opacity="1" fill-rule="nonzero"/><path fill="#47170f" d="M 233.707031 205.71875 C 233.585938 206.003906 233.25 206.128906 232.972656 206.003906 C 232.6875 205.878906 232.558594 205.550781 232.683594 205.265625 L 233.691406 202.988281 C 234.058594 203.089844 234.417969 203.203125 234.765625 203.332031 L 233.707031 205.71875 " fill-opacity="1" fill-rule="nonzero"/><path fill="#47170f" d="M 235.71875 206.234375 C 235.59375 206.515625 235.265625 206.644531 234.980469 206.519531 C 234.699219 206.394531 234.570312 206.0625 234.691406 205.78125 L 235.617188 203.691406 C 235.964844 203.851562 236.296875 204.023438 236.609375 204.210938 L 235.71875 206.234375 " fill-opacity="1" fill-rule="nonzero"/><path fill="#863022" d="M 215.125 196.527344 C 215.125 196.847656 215.390625 197.109375 215.710938 197.109375 L 230.695312 197.109375 C 231.015625 197.109375 231.277344 196.847656 231.277344 196.527344 C 231.277344 196.207031 231.015625 195.941406 230.695312 195.941406 L 215.710938 195.941406 C 215.390625 195.941406 215.125 196.207031 215.125 196.527344 " fill-opacity="1" fill-rule="nonzero"/><path fill="#5b1f15" d="M 213.558594 199.304688 L 197.789062 157.597656 C 195.894531 154.082031 197.210938 149.695312 200.722656 147.800781 C 204.246094 145.90625 208.636719 147.222656 210.535156 150.734375 L 226.398438 197.816406 L 213.558594 199.304688 " fill-opacity="1" fill-rule="nonzero"/><path fill="#bf935b" d="M 226.972656 197.695312 L 226.972656 203.636719 C 232.40625 203.878906 236.714844 207.140625 236.714844 211.128906 L 236.710938 211.175781 L 211.789062 211.175781 L 211.789062 197.695312 L 226.972656 197.695312 " fill-opacity="1" fill-rule="nonzero"/><path fill="#5b1f15" d="M 236.714844 210.808594 L 236.714844 212.757812 L 234.464844 212.757812 L 234.464844 212.210938 L 233.59375 212.210938 L 233.59375 212.757812 L 231.347656 212.757812 L 231.347656 212.210938 L 230.476562 212.210938 L 230.476562 212.757812 L 228.230469 212.757812 L 228.230469 212.210938 L 227.363281 212.210938 L 227.363281 212.757812 L 225.117188 212.757812 L 225.117188 212.210938 L 224.246094 212.210938 L 224.246094 212.757812 L 211.789062 212.757812 L 211.789062 210.808594 L 236.714844 210.808594 " fill-opacity="1" fill-rule="nonzero"/><path fill="#5b1f15" d="M 225.113281 199.769531 L 226.972656 199.769531 L 226.972656 200.886719 L 225.113281 200.886719 C 224.808594 200.886719 224.554688 200.640625 224.554688 200.328125 C 224.554688 200.019531 224.808594 199.769531 225.113281 199.769531 " fill-opacity="1" fill-rule="nonzero"/><path fill="#5b1f15" d="M 225.113281 201.664062 L 226.972656 201.664062 L 226.972656 202.785156 L 225.113281 202.785156 C 224.808594 202.785156 224.554688 202.535156 224.554688 202.226562 C 224.554688 201.917969 224.808594 201.664062 225.113281 201.664062 " fill-opacity="1" fill-rule="nonzero"/><path fill="#5b1f15" d="M 228.007812 206.324219 C 227.882812 206.605469 227.550781 206.738281 227.273438 206.613281 C 226.988281 206.488281 226.859375 206.152344 226.984375 205.871094 L 227.941406 203.710938 C 228.335938 203.753906 228.710938 203.816406 229.085938 203.894531 L 228.007812 206.324219 " fill-opacity="1" fill-rule="nonzero"/><path fill="#5b1f15" d="M 225.992188 205.050781 C 225.753906 205.253906 225.402344 205.226562 225.207031 204.992188 C 225 204.757812 225.027344 204.402344 225.257812 204.203125 L 225.925781 203.628906 C 226.054688 203.625 226.191406 203.621094 226.324219 203.621094 C 226.753906 203.621094 227.171875 203.644531 227.585938 203.679688 L 225.992188 205.050781 " fill-opacity="1" fill-rule="nonzero"/><path fill="#5b1f15" d="M 230.019531 206.839844 C 229.890625 207.125 229.566406 207.253906 229.28125 207.125 C 229 207 228.871094 206.671875 228.992188 206.386719 L 230.003906 204.105469 C 230.367188 204.210938 230.726562 204.324219 231.078125 204.453125 L 230.019531 206.839844 " fill-opacity="1" fill-rule="nonzero"/><path fill="#5b1f15" d="M 232.027344 207.355469 C 231.902344 207.636719 231.574219 207.765625 231.292969 207.636719 C 231.007812 207.515625 230.875 207.183594 231.003906 206.898438 L 231.929688 204.808594 C 232.273438 204.96875 232.609375 205.144531 232.921875 205.328125 L 232.027344 207.355469 " fill-opacity="1" fill-rule="nonzero"/><path fill="#a33b2b" d="M 211.4375 197.648438 C 211.4375 197.96875 211.699219 198.226562 212.019531 198.226562 L 227.003906 198.226562 C 227.324219 198.226562 227.585938 197.96875 227.585938 197.648438 C 227.585938 197.324219 227.324219 197.0625 227.003906 197.0625 L 212.019531 197.0625 C 211.699219 197.0625 211.4375 197.324219 211.4375 197.648438 " fill-opacity="1" fill-rule="nonzero"/><path fill="#47170f" d="M 234.839844 145.613281 C 234.839844 148.363281 232.613281 150.589844 229.859375 150.589844 C 227.109375 150.589844 224.882812 148.363281 224.882812 145.613281 C 224.882812 142.867188 227.109375 140.636719 229.859375 140.636719 C 232.613281 140.636719 234.839844 142.867188 234.839844 145.613281 " fill-opacity="1" fill-rule="nonzero"/><path fill="#f8a269" d="M 227.164062 141.011719 C 226.003906 142.925781 224.296875 143.855469 222.382812 142.695312 L 176.144531 123.355469 C 174.234375 122.191406 172.84375 120.609375 174.347656 117.15625 L 174.570312 116.648438 C 176.398438 113.449219 179.617188 113.386719 181.535156 114.550781 L 226.929688 137.488281 C 228.84375 138.652344 228.328125 139.097656 227.164062 141.011719 " fill-opacity="1" fill-rule="nonzero"/><path fill="#f8a269" d="M 226.929688 137.488281 C 226.929688 137.488281 235.835938 139.648438 236.027344 144.550781 C 236.054688 145.308594 236.121094 147.339844 234.808594 147.339844 C 234.808594 147.339844 233.332031 147.40625 233.074219 145.039062 C 232.824219 142.679688 230.195312 142.265625 228.453125 142.265625 C 226.707031 142.265625 225.265625 144.503906 222.382812 142.695312 L 226.929688 137.488281 " fill-opacity="1" fill-rule="nonzero"/><path fill="#a31f1c" d="M 174.058594 116.140625 C 172.453125 119.171875 173.992188 123.128906 177.496094 125 L 183.25 128.035156 L 189.074219 117.011719 L 183.320312 113.976562 C 179.800781 112.140625 175.660156 113.101562 174.058594 116.140625 " fill-opacity="1" fill-rule="nonzero"/><path fill="#f9a672" d="M 188.839844 98.828125 L 178.875 97.425781 C 178.875 97.425781 177.476562 106.402344 177.457031 106.761719 L 177.460938 106.820312 L 177.457031 106.851562 L 177.460938 106.851562 C 177.378906 109.652344 179.511719 112.003906 182.273438 112.132812 C 185.070312 112.265625 187.441406 110.070312 187.570312 107.234375 L 187.570312 107.160156 L 188.839844 98.828125 " fill-opacity="1" fill-rule="nonzero"/><path fill="#e58148" d="M 177.578125 105.878906 C 180.863281 103.820312 182.960938 103.980469 187.949219 104.683594 L 188.273438 102.554688 L 178.300781 101.125 L 177.578125 105.878906 " fill-opacity="1" fill-rule="nonzero"/><path fill="#f9a672" d="M 198.964844 87.605469 C 198.726562 87.507812 198.457031 87.558594 198.175781 87.726562 L 198.71875 83.863281 C 199.671875 77.078125 197.375 71.386719 190.835938 70.46875 L 184.253906 69.542969 C 177.710938 68.625 173.9375 73.460938 172.980469 80.25 L 172.4375 84.121094 C 172.203125 83.875 171.953125 83.746094 171.707031 83.777344 C 170.976562 83.867188 170.519531 85.238281 170.691406 86.851562 C 170.808594 87.992188 171.207031 88.941406 171.695312 89.363281 C 171.695312 89.363281 175.167969 102.226562 182.695312 103.28125 C 192.136719 104.609375 197.4375 92.972656 197.4375 92.972656 C 198.015625 92.695312 198.660156 91.894531 199.085938 90.835938 C 199.691406 89.339844 199.636719 87.890625 198.964844 87.605469 " fill-opacity="1" fill-rule="nonzero"/><path fill="#b1221f" d="M 177.523438 106.222656 Z M 187.871094 106.542969 C 187.554688 106.542969 187.273438 106.816406 187.238281 107.148438 C 186.984375 109.753906 184.6875 111.757812 182.066406 111.476562 C 179.515625 111.226562 177.613281 108.910156 177.824219 106.3125 L 177.828125 106.226562 C 177.859375 105.886719 177.617188 105.605469 177.265625 105.574219 L 177.203125 105.566406 C 176.882812 105.566406 176.609375 105.832031 176.582031 106.132812 C 176.566406 106.191406 176.5625 106.257812 176.566406 106.265625 C 176.335938 109.515625 178.746094 112.410156 181.941406 112.722656 C 182.09375 112.742188 182.242188 112.75 182.390625 112.75 L 182.519531 112.753906 C 185.613281 112.753906 188.183594 110.398438 188.492188 107.257812 L 188.492188 107.183594 C 188.519531 106.847656 188.285156 106.582031 187.871094 106.542969 " fill-opacity="1" fill-rule="nonzero"/><path fill="#552019" d="M 197.175781 78.820312 C 197.175781 78.820312 193.253906 87.570312 195.691406 90.320312 C 195.691406 90.320312 201.527344 86.472656 199.226562 77.519531 L 197.175781 78.820312 " fill-opacity="1" fill-rule="nonzero"/><path fill="#552019" d="M 177.519531 75.429688 C 177.519531 75.429688 175.644531 86.109375 172.421875 87.882812 C 172.421875 87.882812 170.894531 79.105469 176.613281 72.984375 L 177.519531 75.429688 " fill-opacity="1" fill-rule="nonzero"/><path fill="#552019" d="M 199.226562 77.519531 C 199.226562 77.519531 197.046875 69.960938 188.367188 69.128906 C 179.6875 68.296875 174.667969 68.703125 172.511719 81.191406 C 171.328125 88.003906 182.75 82.691406 186.964844 80.738281 C 186.964844 80.738281 184.636719 83.265625 182.023438 83.5625 C 182.023438 83.5625 193.164062 86.203125 199.226562 77.519531 " fill-opacity="1" fill-rule="nonzero"/><path fill="#47170f" d="M 184.109375 103.84375 C 183.613281 103.84375 183.09375 103.804688 182.570312 103.734375 C 174.835938 102.648438 171.339844 90.019531 171.195312 89.484375 C 171.128906 89.238281 171.273438 88.988281 171.519531 88.921875 C 171.757812 88.855469 172.011719 89 172.074219 89.246094 C 172.109375 89.371094 175.558594 101.828125 182.695312 102.828125 C 191.691406 104.101562 196.910156 92.898438 196.957031 92.785156 C 197.066406 92.554688 197.339844 92.453125 197.570312 92.554688 C 197.792969 92.660156 197.898438 92.933594 197.792969 93.164062 C 197.742188 93.273438 192.828125 103.84375 184.109375 103.84375 " fill-opacity="1" fill-rule="nonzero"/><path fill="#ef2f2c" d="M 184.421875 67.398438 C 175.28125 68.171875 168.496094 76.203125 169.273438 85.332031 C 169.507812 88.105469 170.007812 91.527344 171.402344 93.71875 C 171.402344 93.71875 171.996094 94.753906 172.785156 94.167969 C 173.46875 93.65625 172.917969 92.914062 172.917969 92.914062 C 172.441406 91.734375 171.8125 89.9375 171.699219 88.605469 C 171.097656 81.425781 176.457031 75.503906 183.644531 74.894531 C 190.828125 74.285156 197.152344 79.617188 197.761719 86.796875 C 198.074219 90.507812 197.148438 94.339844 194.496094 96.550781 C 194.28125 96.726562 193.855469 96.941406 194.425781 97.636719 C 194.804688 98.097656 195.324219 97.542969 195.542969 97.355469 C 199.832031 93.707031 202.886719 88.546875 202.378906 82.535156 C 201.605469 73.402344 193.566406 66.625 184.421875 67.398438 " fill-opacity="1" fill-rule="nonzero"/><path fill="#881916" d="M 194.316406 97.175781 C 194.125 97.195312 193.925781 97.121094 193.792969 96.960938 C 193.578125 96.703125 193.609375 96.320312 193.875 96.101562 C 196.109375 94.234375 197.25 90.78125 196.921875 86.867188 C 196.335938 80.03125 190.304688 74.941406 183.464844 75.523438 C 176.503906 76.109375 171.511719 81.84375 172.074219 88.574219 C 172.199219 89.972656 172.9375 91.929688 173.25 92.703125 C 173.382812 93.015625 173.230469 93.371094 172.917969 93.496094 C 172.601562 93.625 172.25 93.472656 172.125 93.160156 C 171.707031 92.132812 170.988281 90.1875 170.863281 88.675781 C 170.234375 81.265625 175.722656 74.953125 183.359375 74.308594 C 190.871094 73.671875 197.503906 79.261719 198.136719 86.761719 C 198.507812 91.140625 197.234375 94.882812 194.652344 97.035156 C 194.554688 97.121094 194.429688 97.167969 194.316406 97.175781 " fill-opacity="1" fill-rule="nonzero"/><g fill="#000000" fill-opacity="1"><g transform="translate(100.586971, 303.763133)"><g><path d="M 16.6875 -1.921875 C 15.207031 -0.523438 13.492188 0.171875 11.546875 0.171875 C 10.085938 0.171875 8.703125 -0.15625 7.390625 -0.8125 C 6.085938 -1.46875 4.941406 -2.347656 3.953125 -3.453125 C 2.972656 -4.554688 2.195312 -5.84375 1.625 -7.3125 C 1.050781 -8.789062 0.765625 -10.347656 0.765625 -11.984375 C 0.765625 -13.640625 1.054688 -15.179688 1.640625 -16.609375 C 2.222656 -18.035156 3.03125 -19.273438 4.0625 -20.328125 C 5.09375 -21.378906 6.304688 -22.207031 7.703125 -22.8125 C 9.097656 -23.425781 10.59375 -23.734375 12.1875 -23.734375 C 13.175781 -23.734375 14.125 -23.613281 15.03125 -23.375 C 15.9375 -23.144531 16.773438 -22.800781 17.546875 -22.34375 C 18.328125 -21.894531 19.019531 -21.351562 19.625 -20.71875 C 20.238281 -20.09375 20.742188 -19.378906 21.140625 -18.578125 L 16.328125 -14.90625 C 15.929688 -15.832031 15.328125 -16.578125 14.515625 -17.140625 C 13.710938 -17.703125 12.859375 -17.984375 11.953125 -17.984375 C 11.285156 -17.984375 10.671875 -17.828125 10.109375 -17.515625 C 9.546875 -17.210938 9.054688 -16.785156 8.640625 -16.234375 C 8.234375 -15.679688 7.910156 -15.019531 7.671875 -14.25 C 7.441406 -13.488281 7.328125 -12.65625 7.328125 -11.75 C 7.328125 -10.820312 7.441406 -9.976562 7.671875 -9.21875 C 7.910156 -8.46875 8.238281 -7.820312 8.65625 -7.28125 C 9.082031 -6.738281 9.585938 -6.316406 10.171875 -6.015625 C 10.753906 -5.722656 11.398438 -5.578125 12.109375 -5.578125 C 12.910156 -5.578125 13.679688 -5.773438 14.421875 -6.171875 C 15.160156 -6.566406 15.851562 -7.144531 16.5 -7.90625 L 12.34375 -7.90625 L 12.34375 -12.546875 L 22.03125 -12.546875 L 22.03125 0 L 16.6875 0 Z M 16.6875 -1.921875 "/></g></g></g><g fill="#000000" fill-opacity="1"><g transform="translate(123.782375, 303.763133)"><g><path d="M 2.03125 0 L 2.03125 -23.5625 L 8.5 -23.5625 L 8.5 0 Z M 2.03125 0 "/></g></g></g><g fill="#000000" fill-opacity="1"><g transform="translate(134.301595, 303.763133)"><g><path d="M -0.265625 0 L 8.53125 -23.5625 L 13.765625 -23.5625 L 22.53125 0 L 15.703125 0 L 14.265625 -4.609375 L 8 -4.609375 L 6.609375 0 Z M 11.15625 -16.828125 L 8.953125 -8.921875 L 13.234375 -8.921875 Z M 11.15625 -16.828125 "/></g></g></g><g fill="#000000" fill-opacity="1"><g transform="translate(156.567856, 303.763133)"><g><path d="M 12.015625 0.203125 C 10.328125 0.203125 8.789062 -0.140625 7.40625 -0.828125 C 6.03125 -1.515625 4.847656 -2.414062 3.859375 -3.53125 C 2.878906 -4.644531 2.117188 -5.921875 1.578125 -7.359375 C 1.035156 -8.804688 0.765625 -10.289062 0.765625 -11.8125 C 0.765625 -13.363281 1.046875 -14.859375 1.609375 -16.296875 C 2.171875 -17.734375 2.960938 -19 3.984375 -20.09375 C 5.003906 -21.1875 6.203125 -22.0625 7.578125 -22.71875 C 8.960938 -23.375 10.484375 -23.703125 12.140625 -23.703125 C 13.828125 -23.703125 15.359375 -23.359375 16.734375 -22.671875 C 18.117188 -21.984375 19.300781 -21.070312 20.28125 -19.9375 C 21.269531 -18.8125 22.03125 -17.53125 22.5625 -16.09375 C 23.09375 -14.65625 23.359375 -13.1875 23.359375 -11.6875 C 23.359375 -10.132812 23.078125 -8.644531 22.515625 -7.21875 C 21.953125 -5.789062 21.171875 -4.53125 20.171875 -3.4375 C 19.179688 -2.34375 17.988281 -1.460938 16.59375 -0.796875 C 15.195312 -0.128906 13.671875 0.203125 12.015625 0.203125 Z M 7.328125 -11.75 C 7.328125 -10.945312 7.421875 -10.175781 7.609375 -9.4375 C 7.804688 -8.695312 8.101562 -8.039062 8.5 -7.46875 C 8.894531 -6.894531 9.390625 -6.429688 9.984375 -6.078125 C 10.585938 -5.722656 11.285156 -5.546875 12.078125 -5.546875 C 12.898438 -5.546875 13.609375 -5.726562 14.203125 -6.09375 C 14.796875 -6.457031 15.28125 -6.929688 15.65625 -7.515625 C 16.039062 -8.097656 16.328125 -8.765625 16.515625 -9.515625 C 16.703125 -10.273438 16.796875 -11.039062 16.796875 -11.8125 C 16.796875 -12.613281 16.695312 -13.382812 16.5 -14.125 C 16.300781 -14.863281 16.003906 -15.515625 15.609375 -16.078125 C 15.222656 -16.640625 14.726562 -17.09375 14.125 -17.4375 C 13.53125 -17.78125 12.835938 -17.953125 12.046875 -17.953125 C 11.222656 -17.953125 10.519531 -17.773438 9.9375 -17.421875 C 9.351562 -17.066406 8.867188 -16.597656 8.484375 -16.015625 C 8.097656 -15.429688 7.804688 -14.765625 7.609375 -14.015625 C 7.421875 -13.273438 7.328125 -12.519531 7.328125 -11.75 Z M 7.328125 -11.75 "/></g></g></g><g fill="#000000" fill-opacity="1"><g transform="translate(180.692401, 303.763133)"><g/></g></g><g fill="#000000" fill-opacity="1"><g transform="translate(188.158723, 303.763133)"><g><path d="M 22.859375 -23.5625 L 22.859375 0 L 16.390625 0 L 16.390625 -9.21875 L 8.5 -9.21875 L 8.5 0 L 2.03125 0 L 2.03125 -23.5625 L 8.5 -23.5625 L 8.5 -14.875 L 16.390625 -14.875 L 16.390625 -23.5625 Z M 22.859375 -23.5625 "/></g></g></g><g fill="#000000" fill-opacity="1"><g transform="translate(213.046498, 303.763133)"><g><path d="M -0.265625 0 L 8.53125 -23.5625 L 13.765625 -23.5625 L 22.53125 0 L 15.703125 0 L 14.265625 -4.609375 L 8 -4.609375 L 6.609375 0 Z M 11.15625 -16.828125 L 8.953125 -8.921875 L 13.234375 -8.921875 Z M 5.9375 -30.359375 L 11.546875 -30.359375 L 13.203125 -25.65625 L 9.21875 -24.59375 Z M 5.9375 -30.359375 "/></g></g></g><g fill="#000000" fill-opacity="1"><g transform="translate(235.31276, 303.763133)"><g><path d="M 8.5 -11.578125 L 8.5 0 L 2.03125 0 L 2.03125 -23.5625 L 7.0625 -23.5625 L 16.53125 -11.578125 L 16.53125 -23.5625 L 23 -23.5625 L 23 0 L 17.859375 0 Z M 8.5 -11.578125 "/></g></g></g><g fill="#000000" fill-opacity="1"><g transform="translate(260.33326, 303.763133)"><g><path d="M 16.6875 -1.921875 C 15.207031 -0.523438 13.492188 0.171875 11.546875 0.171875 C 10.085938 0.171875 8.703125 -0.15625 7.390625 -0.8125 C 6.085938 -1.46875 4.941406 -2.347656 3.953125 -3.453125 C 2.972656 -4.554688 2.195312 -5.84375 1.625 -7.3125 C 1.050781 -8.789062 0.765625 -10.347656 0.765625 -11.984375 C 0.765625 -13.640625 1.054688 -15.179688 1.640625 -16.609375 C 2.222656 -18.035156 3.03125 -19.273438 4.0625 -20.328125 C 5.09375 -21.378906 6.304688 -22.207031 7.703125 -22.8125 C 9.097656 -23.425781 10.59375 -23.734375 12.1875 -23.734375 C 13.175781 -23.734375 14.125 -23.613281 15.03125 -23.375 C 15.9375 -23.144531 16.773438 -22.800781 17.546875 -22.34375 C 18.328125 -21.894531 19.019531 -21.351562 19.625 -20.71875 C 20.238281 -20.09375 20.742188 -19.378906 21.140625 -18.578125 L 16.328125 -14.90625 C 15.929688 -15.832031 15.328125 -16.578125 14.515625 -17.140625 C 13.710938 -17.703125 12.859375 -17.984375 11.953125 -17.984375 C 11.285156 -17.984375 10.671875 -17.828125 10.109375 -17.515625 C 9.546875 -17.210938 9.054688 -16.785156 8.640625 -16.234375 C 8.234375 -15.679688 7.910156 -15.019531 7.671875 -14.25 C 7.441406 -13.488281 7.328125 -12.65625 7.328125 -11.75 C 7.328125 -10.820312 7.441406 -9.976562 7.671875 -9.21875 C 7.910156 -8.46875 8.238281 -7.820312 8.65625 -7.28125 C 9.082031 -6.738281 9.585938 -6.316406 10.171875 -6.015625 C 10.753906 -5.722656 11.398438 -5.578125 12.109375 -5.578125 C 12.910156 -5.578125 13.679688 -5.773438 14.421875 -6.171875 C 15.160156 -6.566406 15.851562 -7.144531 16.5 -7.90625 L 12.34375 -7.90625 L 12.34375 -12.546875 L 22.03125 -12.546875 L 22.03125 0 L 16.6875 0 Z M 16.6875 -1.921875 "/></g></g></g><g fill="#000000" fill-opacity="1"><g transform="translate(283.529867, 303.763133)"><g/></g></g><g fill="#000000" fill-opacity="1"><g transform="translate(103.676344, 332.430253)"><g><path d="M 1.75 0 L 1.75 -6.078125 L 0.625 -6.078125 L 0.625 -7.078125 L 1.75 -7.078125 L 1.75 -13.09375 L 6.1875 -13.09375 C 7.238281 -13.09375 8.15625 -12.921875 8.9375 -12.578125 C 9.71875 -12.234375 10.367188 -11.765625 10.890625 -11.171875 C 11.410156 -10.578125 11.800781 -9.882812 12.0625 -9.09375 C 12.332031 -8.300781 12.46875 -7.457031 12.46875 -6.5625 C 12.46875 -5.5625 12.316406 -4.660156 12.015625 -3.859375 C 11.722656 -3.054688 11.300781 -2.367188 10.75 -1.796875 C 10.207031 -1.222656 9.550781 -0.78125 8.78125 -0.46875 C 8.019531 -0.15625 7.15625 0 6.1875 0 Z M 11.171875 -6.5625 C 11.171875 -7.351562 11.0625 -8.078125 10.84375 -8.734375 C 10.625 -9.390625 10.300781 -9.957031 9.875 -10.4375 C 9.445312 -10.914062 8.925781 -11.285156 8.3125 -11.546875 C 7.695312 -11.816406 6.988281 -11.953125 6.1875 -11.953125 L 3.046875 -11.953125 L 3.046875 -7.078125 L 6.171875 -7.078125 L 6.171875 -6.078125 L 3.046875 -6.078125 L 3.046875 -1.140625 L 6.1875 -1.140625 C 7 -1.140625 7.71875 -1.273438 8.34375 -1.546875 C 8.96875 -1.828125 9.488281 -2.207031 9.90625 -2.6875 C 10.320312 -3.175781 10.632812 -3.75 10.84375 -4.40625 C 11.0625 -5.070312 11.171875 -5.789062 11.171875 -6.5625 Z M 11.171875 -6.5625 "/></g></g></g><g fill="#000000" fill-opacity="1"><g transform="translate(119.728361, 332.430253)"><g><path d="M 10.046875 0 L 8.46875 -4.078125 L 3.25 -4.078125 L 1.671875 0 L 0 0 L 5.140625 -13.21875 L 6.640625 -13.21875 L 11.765625 0 Z M 7.96875 -5.546875 L 6.484375 -9.53125 C 6.453125 -9.625 6.390625 -9.800781 6.296875 -10.0625 C 6.210938 -10.320312 6.128906 -10.585938 6.046875 -10.859375 C 5.972656 -11.140625 5.910156 -11.351562 5.859375 -11.5 C 5.765625 -11.125 5.664062 -10.753906 5.5625 -10.390625 C 5.457031 -10.023438 5.367188 -9.738281 5.296875 -9.53125 L 3.796875 -5.546875 Z M 8.8125 -16.921875 C 8.75 -16.179688 8.46875 -15.582031 7.96875 -15.125 C 7.476562 -14.675781 6.789062 -14.453125 5.90625 -14.453125 C 4.988281 -14.453125 4.300781 -14.671875 3.84375 -15.109375 C 3.382812 -15.554688 3.128906 -16.160156 3.078125 -16.921875 L 4.078125 -16.921875 C 4.128906 -16.421875 4.3125 -16.101562 4.625 -15.96875 C 4.9375 -15.832031 5.375 -15.765625 5.9375 -15.765625 C 6.414062 -15.765625 6.828125 -15.835938 7.171875 -15.984375 C 7.523438 -16.128906 7.734375 -16.441406 7.796875 -16.921875 Z M 5.953125 3.25 C 5.691406 3.25 5.46875 3.160156 5.28125 2.984375 C 5.09375 2.816406 5 2.5625 5 2.21875 C 5 1.851562 5.09375 1.585938 5.28125 1.421875 C 5.46875 1.265625 5.691406 1.1875 5.953125 1.1875 C 6.210938 1.1875 6.4375 1.265625 6.625 1.421875 C 6.820312 1.585938 6.921875 1.851562 6.921875 2.21875 C 6.921875 2.5625 6.820312 2.816406 6.625 2.984375 C 6.4375 3.160156 6.210938 3.25 5.953125 3.25 Z M 5.953125 3.25 "/></g></g></g><g fill="#000000" fill-opacity="1"><g transform="translate(134.269278, 332.430253)"><g><path d="M 10.9375 -11.953125 L 6.265625 -11.953125 L 6.265625 0 L 4.984375 0 L 4.984375 -11.953125 L 0.3125 -11.953125 L 0.3125 -13.09375 L 10.9375 -13.09375 Z M 10.9375 -11.953125 "/></g></g></g><g fill="#000000" fill-opacity="1"><g transform="translate(148.275768, 332.430253)"><g/></g></g><g fill="#000000" fill-opacity="1"><g transform="translate(155.74027, 332.430253)"><g><path d="M 11.96875 -13.09375 L 11.96875 0 L 10.6875 0 L 10.6875 -6.125 L 2.9375 -6.125 L 2.9375 0 L 1.640625 0 L 1.640625 -13.09375 L 2.9375 -13.09375 L 2.9375 -7.265625 L 10.6875 -7.265625 L 10.6875 -13.09375 Z M 11.96875 -13.09375 "/></g></g></g><g fill="#000000" fill-opacity="1"><g transform="translate(172.105568, 332.430253)"><g><path d="M 5.703125 -13.09375 L 6.78125 -13.09375 L 12.21875 0 L 10.859375 0 L 9.15625 -4.09375 L 3.28125 -4.09375 L 1.609375 0 L 0.21875 0 Z M 8.875 -5.109375 L 6.234375 -11.578125 L 3.5625 -5.109375 Z M 4.515625 -16.90625 L 5.828125 -16.90625 L 6.9375 -15.1875 L 6.125 -14.875 Z M 4.515625 -16.90625 "/></g></g></g><g fill="#000000" fill-opacity="1"><g transform="translate(187.328321, 332.430253)"><g><path d="M 2.9375 -10.6875 L 2.9375 0 L 1.640625 0 L 1.640625 -13.09375 L 2.640625 -13.09375 L 11.296875 -2.1875 L 11.296875 -13.078125 L 12.59375 -13.078125 L 12.59375 0 L 11.46875 0 Z M 2.9375 -10.6875 "/></g></g></g><g fill="#000000" fill-opacity="1"><g transform="translate(204.320178, 332.430253)"><g><path d="M 11.09375 -1.921875 C 9.882812 -0.578125 8.484375 0.09375 6.890625 0.09375 C 6.003906 0.09375 5.191406 -0.09375 4.453125 -0.46875 C 3.710938 -0.851562 3.066406 -1.359375 2.515625 -1.984375 C 1.972656 -2.617188 1.546875 -3.332031 1.234375 -4.125 C 0.929688 -4.914062 0.78125 -5.726562 0.78125 -6.5625 C 0.78125 -7.4375 0.925781 -8.269531 1.21875 -9.0625 C 1.519531 -9.863281 1.941406 -10.566406 2.484375 -11.171875 C 3.023438 -11.785156 3.664062 -12.273438 4.40625 -12.640625 C 5.144531 -13.003906 5.953125 -13.1875 6.828125 -13.1875 C 7.460938 -13.1875 8.039062 -13.113281 8.5625 -12.96875 C 9.09375 -12.832031 9.5625 -12.632812 9.96875 -12.375 C 10.382812 -12.125 10.742188 -11.820312 11.046875 -11.46875 C 11.347656 -11.125 11.601562 -10.742188 11.8125 -10.328125 L 10.828125 -9.65625 C 10.390625 -10.46875 9.828125 -11.0625 9.140625 -11.4375 C 8.453125 -11.820312 7.671875 -12.015625 6.796875 -12.015625 C 6.078125 -12.015625 5.425781 -11.859375 4.84375 -11.546875 C 4.257812 -11.242188 3.757812 -10.835938 3.34375 -10.328125 C 2.9375 -9.816406 2.617188 -9.234375 2.390625 -8.578125 C 2.171875 -7.921875 2.0625 -7.242188 2.0625 -6.546875 C 2.0625 -5.804688 2.1875 -5.101562 2.4375 -4.4375 C 2.695312 -3.78125 3.046875 -3.203125 3.484375 -2.703125 C 3.921875 -2.203125 4.4375 -1.800781 5.03125 -1.5 C 5.632812 -1.207031 6.285156 -1.0625 6.984375 -1.0625 C 7.734375 -1.0625 8.445312 -1.238281 9.125 -1.59375 C 9.8125 -1.945312 10.46875 -2.503906 11.09375 -3.265625 L 11.09375 -5.4375 L 8.1875 -5.4375 L 8.1875 -6.4375 L 12.1875 -6.4375 L 12.1875 0 L 11.09375 0 Z M 11.09375 -1.921875 "/></g></g></g><g fill="#000000" fill-opacity="1"><g transform="translate(220.280058, 332.430253)"><g/></g></g><g fill="#000000" fill-opacity="1"><g transform="translate(227.744555, 332.430253)"><g><path d="M 2.9375 -10.6875 L 2.9375 0 L 1.640625 0 L 1.640625 -13.09375 L 2.640625 -13.09375 L 11.296875 -2.1875 L 11.296875 -13.078125 L 12.59375 -13.078125 L 12.59375 0 L 11.46875 0 Z M 2.9375 -10.6875 "/></g></g></g><g fill="#000000" fill-opacity="1"><g transform="translate(244.736407, 332.430253)"><g><path d="M 11.09375 -1.921875 C 9.882812 -0.578125 8.484375 0.09375 6.890625 0.09375 C 6.003906 0.09375 5.191406 -0.09375 4.453125 -0.46875 C 3.710938 -0.851562 3.066406 -1.359375 2.515625 -1.984375 C 1.972656 -2.617188 1.546875 -3.332031 1.234375 -4.125 C 0.929688 -4.914062 0.78125 -5.726562 0.78125 -6.5625 C 0.78125 -7.4375 0.925781 -8.269531 1.21875 -9.0625 C 1.519531 -9.863281 1.941406 -10.566406 2.484375 -11.171875 C 3.023438 -11.785156 3.664062 -12.273438 4.40625 -12.640625 C 5.144531 -13.003906 5.953125 -13.1875 6.828125 -13.1875 C 7.460938 -13.1875 8.039062 -13.113281 8.5625 -12.96875 C 9.09375 -12.832031 9.5625 -12.632812 9.96875 -12.375 C 10.382812 -12.125 10.742188 -11.820312 11.046875 -11.46875 C 11.347656 -11.125 11.601562 -10.742188 11.8125 -10.328125 L 10.828125 -9.65625 C 10.390625 -10.46875 9.828125 -11.0625 9.140625 -11.4375 C 8.453125 -11.820312 7.671875 -12.015625 6.796875 -12.015625 C 6.078125 -12.015625 5.425781 -11.859375 4.84375 -11.546875 C 4.257812 -11.242188 3.757812 -10.835938 3.34375 -10.328125 C 2.9375 -9.816406 2.617188 -9.234375 2.390625 -8.578125 C 2.171875 -7.921875 2.0625 -7.242188 2.0625 -6.546875 C 2.0625 -5.804688 2.1875 -5.101562 2.4375 -4.4375 C 2.695312 -3.78125 3.046875 -3.203125 3.484375 -2.703125 C 3.921875 -2.203125 4.4375 -1.800781 5.03125 -1.5 C 5.632812 -1.207031 6.285156 -1.0625 6.984375 -1.0625 C 7.734375 -1.0625 8.445312 -1.238281 9.125 -1.59375 C 9.8125 -1.945312 10.46875 -2.503906 11.09375 -3.265625 L 11.09375 -5.4375 L 8.1875 -5.4375 L 8.1875 -6.4375 L 12.1875 -6.4375 L 12.1875 0 L 11.09375 0 Z M 11.09375 -1.921875 "/></g></g></g><g fill="#000000" fill-opacity="1"><g transform="translate(260.696286, 332.430253)"><g><path d="M 5.703125 -13.09375 L 6.78125 -13.09375 L 12.21875 0 L 10.859375 0 L 9.15625 -4.09375 L 3.28125 -4.09375 L 1.609375 0 L 0.21875 0 Z M 8.875 -5.109375 L 6.234375 -11.578125 L 3.5625 -5.109375 Z M 8.875 -5.109375 "/></g></g></g><g fill="#000000" fill-opacity="1"><g transform="translate(275.919034, 332.430253)"><g><path d="M 1.71875 -13.09375 L 5.984375 -6.046875 L 10.3125 -13.09375 L 11.703125 -13.09375 L 6.640625 -4.875 L 6.640625 0 L 5.34375 0 L 5.34375 -4.90625 L 0.296875 -13.09375 Z M 1.71875 -13.09375 "/></g></g></g></svg>